Coordinates
version=1
nRows=13
nColumns=40
inDegrees=yes

Units are S.I. units (second, meters, Newtons, ...)
Angles are in degrees.

endheader
time	pelvis_tilt	pelvis_list	pelvis_rotation	pelvis_tx	pelvis_ty	pelvis_tz	hip_flexion_r	hip_adduction_r	hip_rotation_r	knee_angle_r	knee_angle_r_beta	ankle_angle_r	subtalar_angle_r	mtp_angle_r	hip_flexion_l	hip_adduction_l	hip_rotation_l	knee_angle_l	knee_angle_l_beta	ankle_angle_l	subtalar_angle_l	mtp_angle_l	lumbar_extension	lumbar_bending	lumbar_rotation	arm_flex_r	arm_add_r	arm_rot_r	elbow_flex_r	pro_sup_r	wrist_flex_r	wrist_dev_r	arm_flex_l	arm_add_l	arm_rot_l	elbow_flex_l	pro_sup_l	wrist_flex_l	wrist_dev_l
     50.33000000	     -5.88544562	     -7.32033221	      5.83953742	      1.04079934	      0.91906176	      0.53761225	     -0.00779225	      6.70014098	    -18.94010927	      7.28265841	      7.28265841	     15.97048371	     10.60855955	     -2.93826829	     35.52121764	    -10.05669752	     -2.97073144	     18.56685322	     18.56685322	      7.28397470	     -4.33045566	     13.22590762	    -11.32343614	      9.95052451	      3.93690600	     48.23824998	    -14.97500675	      5.13668040	    101.87806553	     44.15843585	      0.00000000	      0.00000000	    -14.70885639	     -8.15185173	      4.88732515	     30.89036114	     45.63453285	      0.00000000	      0.00000000
     50.34257143	     -5.94278159	     -7.34792979	      5.69826682	      1.04218849	      0.91768043	      0.53581065	     -0.59044968	      6.63975244	    -18.73569860	      7.29952857	      7.29952857	     16.40269558	     10.69252025	     -3.00615827	     35.22345733	     -9.86164569	     -3.24609989	     18.60379967	     18.60379967	      6.62194360	     -4.21461112	     13.16984039	    -10.98776584	      9.89156032	      3.85216292	     47.90698172	    -14.92609350	      5.14716467	    102.13419663	     44.15477646	      0.00000000	      0.00000000	    -15.06569523	     -8.09226219	      4.94404428	     30.85140423	     45.62128059	      0.00000000	      0.00000000
     50.35514286	     -6.03650724	     -7.42475870	      5.55949563	      1.04354987	      0.91631170	      0.53382295	     -1.09904311	      6.60117168	    -18.54944118	      7.36319188	      7.36319188	     16.76832020	     10.76599672	     -3.10969695	     34.96322574	     -9.71472399	     -3.31900149	     18.85200689	     18.85200689	      5.94202478	     -4.12962603	     13.29914794	    -10.63002338	      9.96229383	      3.79890403	     47.74654282	    -14.94332631	      5.14373847	    102.20617651	     44.15304763	      0.00000000	      0.00000000	    -15.19768216	     -8.06753535	      4.94908764	     30.83640136	     45.61850130	      0.00000000	      0.00000000
     50.36771429	     -6.03325670	     -7.28891260	      5.28947370	      1.04527910	      0.91520433	      0.53174176	     -1.71964162	      6.29723315	    -18.23984464	      7.51030017	      7.51030017	     17.17448757	     10.87878475	     -3.11468027	     34.61602159	     -9.46707484	     -3.43618161	     19.50269411	     19.50269411	      5.24854070	     -4.39710318	     12.93545052	    -10.38164133	      9.66998266	      3.64869714	     46.80957398	    -14.94673832	      5.19653030	    102.41889627	     44.14497289	      0.00000000	      0.00000000	    -15.53427463	     -8.01272723	      4.94716496	     30.86776868	     45.61332272	      0.00000000	      0.00000000
     50.38028571	     -6.06410915	     -7.24792900	      5.05109676	      1.04702976	      0.91410881	      0.52940946	     -2.11261254	      5.98982733	    -18.20468778	      8.08227871	      8.08227871	     18.15265422	     11.24546419	     -1.74940293	     33.92425379	     -9.13728223	     -2.90688921	     19.33676362	     19.33676362	      2.05329707	     -5.99474042	      6.99458899	    -10.20412135	      9.49222002	      4.35393094	     45.20735261	    -15.81282211	      4.10989975	    104.57890286	     44.16509614	      0.00000000	      0.00000000	    -15.64328260	     -8.19885593	      4.73060388	     32.31357331	     45.64352589	      0.00000000	      0.00000000
     50.39285714	     -6.07779500	     -7.11516784	      4.81974788	      1.04865887	      0.91342181	      0.52686319	     -2.64312032	      5.62534483	    -17.91469379	      8.32058701	      8.32058701	     18.41209191	     11.30735456	     -1.79696055	     33.61766890	     -8.88703596	     -2.80006659	     20.15116129	     20.15116129	      1.66838352	     -6.32850352	      6.82027146	    -10.01489582	      9.33163140	      4.12893871	     44.35606941	    -15.85625939	      4.21125933	    104.31279673	     44.17015820	      0.00000000	      0.00000000	    -15.61582734	     -8.16457436	      4.74644553	     32.29487682	     45.64189118	      0.00000000	      0.00000000
     50.40542857	     -6.24119503	     -7.00806857	      4.56471077	      1.05007062	      0.91271560	      0.52424019	     -2.70962514	      5.16031220	    -17.77183478	      9.14489183	      9.14489183	     18.86078415	     11.31098071	     -1.71839540	     33.48959045	     -8.56565583	     -2.20189013	     20.94928466	     20.94928466	      1.01668897	     -7.62989296	      5.98484486	     -9.63625793	      9.08148953	      4.17260547	     43.17764699	    -16.27683793	      4.00447117	    103.77163303	     44.20558067	      0.00000000	      0.00000000	    -15.36786597	     -8.15001846	      4.65501584	     32.47752585	     45.65877165	      0.00000000	      0.00000000
     50.41800000	     -6.27666733	     -6.76368606	      4.32098096	      1.05150767	      0.91267645	      0.52125003	     -2.93826900	      4.51283149	    -17.73551757	      9.93548566	      9.93548566	     19.30574083	     11.54620260	     -1.22209753	     32.99797832	     -8.09847925	     -1.69233097	     21.36054171	     21.36054171	      0.22400716	     -9.08163738	      4.47603212	     -9.53015941	      8.75274341	      4.19844326	     41.68753211	    -16.56016944	      3.44619014	    103.63345539	     44.26512664	      0.00000000	      0.00000000	    -14.99977262	     -8.14801875	      4.32363759	     32.75452928	     45.70935832	      0.00000000	      0.00000000
     50.43057143	     -6.36328451	     -6.59167970	      4.08895209	      1.05276442	      0.91291352	      0.51821750	     -3.01809370	      3.93447243	    -17.53885615	     10.81348258	     10.81348258	     19.39850612	     11.44692810	     -1.30867753	     32.75319415	     -7.80925212	     -1.49342766	     22.11446788	     22.11446788	      0.43145509	     -9.72754951	      4.17924420	     -9.36946384	      8.51964094	      4.15974654	     40.25198935	    -17.01177870	      3.33958508	    102.78029033	     44.30000427	      0.00000000	      0.00000000	    -14.51723614	     -8.14466512	      4.17863203	     33.02069345	     45.73564594	      0.00000000	      0.00000000
     50.44314286	     -6.45164749	     -6.36263575	      3.85139445	      1.05387336	      0.91359460	      0.51497956	     -2.91165141	      3.21252547	    -17.37485536	     12.01782653	     12.01782653	     19.39963322	     11.28935794	     -1.51953999	     32.38469214	     -7.44427334	     -1.31293550	     22.63102545	     22.63102545	      0.81121324	    -10.44378086	      4.03920722	     -9.26258540	      8.21686281	      4.13548700	     38.61046463	    -17.42400043	      3.04387069	    101.73717823	     44.34620927	      0.00000000	      0.00000000	    -13.90257048	     -8.16024199	      3.96314635	     33.36358376	     45.77285817	      0.00000000	      0.00000000
     50.45571429	     -6.54608384	     -6.15105596	      3.62167480	      1.05482725	      0.91464357	      0.51166196	     -2.62007256	      2.45379621	    -17.21664068	     13.50622382	     13.50622382	     19.21997467	     11.01475943	     -1.91625333	     31.94590580	     -7.10392441	     -1.24026476	     22.96693156	     22.96693156	      1.35656462	    -11.03233739	      4.00054639	     -9.17952320	      7.96185670	      4.11409435	     36.84532520	    -17.77311334	      2.59313608	    100.46033968	     44.40509922	      0.00000000	      0.00000000	    -13.17279551	     -8.19005521	      3.67637199	     33.75176042	     45.82040740	      0.00000000	      0.00000000
     50.46828571	     -6.65942740	     -5.94217903	      3.38001740	      1.05566161	      0.91601716	      0.50827117	     -2.10008018	      1.63763596	    -16.97588052	     15.33606260	     15.33606260	     18.83838968	     10.51117381	     -2.50154834	     31.43120444	     -6.79497198	     -1.34619202	     23.11264988	     23.11264988	      2.03062662	    -11.33616566	      3.93308623	     -9.12761711	      7.71316779	      4.11522130	     34.96794970	    -18.12341266	      2.18510565	     98.91031547	     44.46803263	      0.00000000	      0.00000000	    -12.33158467	     -8.22661842	      3.39356874	     34.19985542	     45.86860621	      0.00000000	      0.00000000
     50.48085714	     -6.78528266	     -5.77006105	      3.11739388	      1.05634238	      0.91756957	      0.50493661	     -1.28662200	      0.80306980	    -16.63080955	     17.62177970	     17.62177970	     18.24057878	      9.70247967	     -3.38082224	     30.83951332	     -6.55021065	     -1.60583506	     23.06248807	     23.06248807	      2.75722405	    -11.43970857	      3.85917658	     -9.06932648	      7.50303314	      4.14410805	     33.03181414	    -18.40231855	      1.70600861	     97.06810963	     44.54160090	      0.00000000	      0.00000000	    -11.41319036	     -8.30545415	      3.07478989	     34.71180070	     45.92182168	      0.00000000	      0.00000000
